<svg xmlns="http://www.w3.org/2000/svg" width="156" height="157" viewBox="0 0 156 157"><defs><style>.a,.d{fill:none;}.a{stroke:#fecf35;stroke-width:5px;}.b{fill:#fecf35;}.c{stroke:none;}</style></defs><g transform="translate(-1089 -770)"><g class="a" transform="translate(1089 770)"><ellipse class="c" cx="78" cy="78.5" rx="78" ry="78.5"/><ellipse class="d" cx="78" cy="78.5" rx="75.5" ry="76"/></g><path class="b" d="M57.284,17.938a5.694,5.694,0,0,0-5.715,5.715V35.874H50.448V11.181a5.694,5.694,0,0,0-5.715-5.715,5.605,5.605,0,0,0-5.5,5.6v24.8H38.116V5.716A5.694,5.694,0,0,0,32.4,0a5.605,5.605,0,0,0-5.5,5.6V35.874H25.785V11.321A5.694,5.694,0,0,0,20.07,5.606a5.605,5.605,0,0,0-5.5,5.6V44.281l-4.435-6.1a5.605,5.605,0,1,0-9.067,6.594l17.6,24.2a6.726,6.726,0,0,0,5.44,2.77H51.8a6.727,6.727,0,0,0,6.548-5.186l3.715-15.788a26.908,26.908,0,0,0,.715-6.162V23.543A5.605,5.605,0,0,0,57.284,17.938Z" transform="translate(1135.349 812.689)"/></g></svg>