<svg xmlns="http://www.w3.org/2000/svg" width="206.825" height="236.372" viewBox="0 0 206.825 236.372"><defs><style>.a{fill:#fecf35;}</style></defs><path class="a" d="M188.72,59.1a18.758,18.758,0,0,0-18.827,18.828v40.262H166.2V36.836a18.758,18.758,0,0,0-18.827-18.828,18.467,18.467,0,0,0-18.106,18.463v81.715h-3.693V18.831A18.758,18.758,0,0,0,106.746,0,18.467,18.467,0,0,0,88.64,18.467v99.719H84.946V37.3A18.758,18.758,0,0,0,66.119,18.47,18.467,18.467,0,0,0,48.013,36.933V145.882L33.4,125.791A18.467,18.467,0,1,0,3.533,147.514l57.985,79.732a22.16,22.16,0,0,0,17.921,9.126h91.22a22.16,22.16,0,0,0,21.571-17.084l12.238-52.011a88.648,88.648,0,0,0,2.356-20.3V77.56A18.466,18.466,0,0,0,188.72,59.1Z"/></svg>