<svg xmlns="http://www.w3.org/2000/svg" width="157" height="157" viewBox="0 0 157 157"><defs><style>.a,.d{fill:none;}.a{stroke:#fecf35;stroke-width:5px;}.b{fill:#fecf35;}.c{stroke:none;}</style></defs><g transform="translate(-882 -770)"><g class="a" transform="translate(882 770)"><circle class="c" cx="78.5" cy="78.5" r="78.5"/><circle class="d" cx="78.5" cy="78.5" r="76"/></g><path class="b" d="M65.134,8.977A6.726,6.726,0,0,0,58.3,15.7H57.175V11.331A6.812,6.812,0,0,0,50.56,4.493a6.726,6.726,0,0,0-6.839,6.726V15.7H42.6V9.089A6.812,6.812,0,0,0,35.986,2.25a6.726,6.726,0,0,0-6.839,6.726V15.7H28.027V11.331a6.812,6.812,0,0,0-6.614-6.839,6.726,6.726,0,0,0-6.839,6.726V30.277l-1.121-.995v-6.74A6.812,6.812,0,0,0,6.839,15.7,6.726,6.726,0,0,0,0,22.43v9.3A13.485,13.485,0,0,0,4.512,41.8L20.165,55.712a6.756,6.756,0,0,1,2.256,5.031v.939a3.355,3.355,0,0,0,3.363,3.363H59.417a3.355,3.355,0,0,0,3.363-3.363v-.406a13.652,13.652,0,0,1,1.051-5.227L70.7,39.75a13.4,13.4,0,0,0,1.051-5.227V15.815a6.8,6.8,0,0,0-6.614-6.839Z" transform="translate(925.11 814.356)"/></g></svg>