<svg xmlns="http://www.w3.org/2000/svg" width="236.372" height="206.874" viewBox="0 0 236.372 206.874"><defs><style>.a{fill:#fecf35;}</style></defs><path class="a" d="M214.581,24.412a22.16,22.16,0,0,0-22.529,22.16h-3.693v-14.4A22.442,22.442,0,0,0,166.568,9.639,22.16,22.16,0,0,0,144.039,31.8V46.572h-3.693V24.781A22.442,22.442,0,0,0,118.555,2.252a22.16,22.16,0,0,0-22.529,22.16v22.16H92.333v-14.4A22.442,22.442,0,0,0,70.542,9.639,22.16,22.16,0,0,0,48.013,31.8V94.585L44.32,91.307V69.1A22.442,22.442,0,0,0,22.529,46.572,22.16,22.16,0,0,0,0,68.732V99.386a44.426,44.426,0,0,0,14.866,33.147l51.568,45.843a22.259,22.259,0,0,1,7.433,16.574v3.093a11.053,11.053,0,0,0,11.08,11.08h110.8a11.053,11.053,0,0,0,11.08-11.08v-1.339a44.975,44.975,0,0,1,3.463-17.22l22.622-53.692a44.128,44.128,0,0,0,3.462-17.22V46.941a22.412,22.412,0,0,0-21.791-22.529Z" transform="translate(0 -2.25)"/></svg>