<svg xmlns="http://www.w3.org/2000/svg" width="236.372" height="206.826" viewBox="0 0 236.372 206.826"><defs><style>.a{fill:#fecf35;}</style></defs><path class="a" d="M99.719,190.609a18.467,18.467,0,0,1,18.467-18.467v-3.693H103.413a18.467,18.467,0,1,1,0-36.933h14.773v-3.693H22.16a22.16,22.16,0,1,1,0-44.32h96.026V77.237l-81.969-32.2A22.16,22.16,0,1,1,52.423,3.79L140.3,38.307l11.482-14.353a18.467,18.467,0,0,1,23.582-4.5L227.068,49a18.468,18.468,0,0,1,9.3,16.034v110.8a18.467,18.467,0,0,1-14.237,17.976l-62.786,14.773a18.459,18.459,0,0,1-4.23.491H118.186A18.467,18.467,0,0,1,99.719,190.609Z" transform="translate(0 -2.25)"/></svg>